<?xml version="1.0" encoding="UTF-8" standalone="no" ?>
<!DOCTYPE svg PUBLIC "-//W3C//DTD SVG 1.1//EN" "http://www.w3.org/Graphics/SVG/1.1/DTD/svg11.dtd">
<svg xmlns="http://www.w3.org/2000/svg" xmlns:xlink="http://www.w3.org/1999/xlink" version="1.1" width="1280" height="1024" viewBox="0 0 1280 1024" xml:space="preserve">
<desc>Created with Fabric.js 3.1.0</desc>
<defs>
</defs>
<g transform="matrix(1.9692780337941629 0 0 1.9692780337941629 640.0153846153846 512.012312418764)" id="background-logo"  >
<rect style="stroke: none; stroke-width: 1; stroke-dasharray: none; stroke-linecap: butt; stroke-dashoffset: 0; stroke-linejoin: miter; stroke-miterlimit: 4; fill: rgb(255,255,255); fill-rule: nonzero; opacity: 1;"  paint-order="stroke"  x="-325" y="-260" rx="0" ry="0" width="650" height="520" />
</g>
<g transform="matrix(1.9692780337941629 0 0 1.9692780337941629 640.0153846153846 420.4999621883493)" style="" id="logo-logo"  >
	<g transform="matrix(2.772 0 0 -2.772 0 0)"  >
<radialGradient id="SVGID_86526" gradientUnits="userSpaceOnUse" gradientTransform="matrix(18.475403 -52.833149 -52.833149 -18.475403 159.66406 176.70166)"  cx="0" cy="-1.4210854715202004e-14" r="1" fx="0" fy="-1.4210854715202004e-14">
<stop offset="0%" style="stop-color:rgb(52,109,191);stop-opacity: 1"/>
<stop offset="100%" style="stop-color:rgb(39,57,122);stop-opacity: 1"/>
</radialGradient>
<path style="stroke: none; stroke-width: 1; stroke-dasharray: none; stroke-linecap: butt; stroke-dashoffset: 0; stroke-linejoin: miter; stroke-miterlimit: 4; fill: url(#SVGID_86526); fill-rule: nonzero; opacity: 1;"  paint-order="stroke"  transform=" translate(-162.49984374982807, -149.547)" d="m 164.915 161.63 l -7.274 10.783 l -0.074 0.109 c -4.675 6.932 -11.766 11.273 -19.32 12.742 v 0 c -7.663 1.393 -15.865 0.024 -22.796 -4.652 v 0 c -7.041 -4.749 -11.382 -11.84 -12.851 -19.394 v 0 c -1.504 -7.737 -0.024 -15.865 4.651 -22.795 v 0 l 12.467 -18.484 l 4.499 -6.669 l 35.868 24.193 l 7.273 -10.782 l 0.074 -0.109 c 4.675 -6.932 11.765 -11.273 19.32 -12.742 v 0 c 7.664 -1.394 15.865 -0.024 22.797 4.651 v 0 c 7.04 4.751 11.382 11.842 12.85 19.396 v 0 c 1.506 7.737 0.023 15.865 -4.652 22.796 v 0 l -12.467 18.482 l -4.498 6.669 z m -50.952 -18.681 c -6.902 10.232 -4.216 24.05 6.015 30.952 v 0 c 10.122 6.829 23.94 4.142 30.842 -6.09 v 0 l 11.801 -17.494 l 35.952 24.304 l 12.463 -18.476 c 6.903 -10.232 4.218 -24.049 -6.015 -30.951 v 0 c -10.122 -6.829 -23.94 -4.143 -30.841 6.089 v 0 l -11.802 17.494 l -35.952 -24.304 z" stroke-linecap="round" />
</g>
	<g transform="matrix(2.772 0 0 -2.772 71.71100000000001 4.560000000000002)"  >
<radialGradient id="SVGID_86527" gradientUnits="userSpaceOnUse" gradientTransform="matrix(18.475491 -52.833397 -52.833397 -18.475491 159.66406 176.70215)"  cx="0" cy="-1.4210854715202004e-14" r="1" fx="0" fy="-1.4210854715202004e-14">
<stop offset="0%" style="stop-color:rgb(52,109,191);stop-opacity: 1"/>
<stop offset="100%" style="stop-color:rgb(39,57,122);stop-opacity: 1"/>
</radialGradient>
<path style="stroke: none; stroke-width: 1; stroke-dasharray: none; stroke-linecap: butt; stroke-dashoffset: 0; stroke-linejoin: miter; stroke-miterlimit: 4; fill: url(#SVGID_86527); fill-rule: nonzero; opacity: 1;"  paint-order="stroke"  transform=" translate(-188.3721350534144, -147.90193441502143)" d="m 174.83 157.372 l -11.662 -7.866 l 4.527 -6.712 l 7.273 -10.782 c 6.531 -9.681 19.61 -12.224 29.292 -5.692 v 0 c 9.683 6.529 12.226 19.61 5.695 29.293 v 0 l -11.799 17.493 z M 189.991 131.1 c -3.131 0.609 -6.197 2.543 -8.237 5.33 v 0 l -7.348 10.892 l 21.564 14.546 l 7.274 -10.783 c 2.004 -2.97 2.575 -6.426 1.929 -9.744 v 0 c -0.534 -3.241 -2.468 -6.308 -5.44 -8.311 v 0 c -2.199 -1.484 -4.667 -2.182 -7.146 -2.182 v 0 c -0.868 -0.001 -1.736 0.085 -2.596 0.252" stroke-linecap="round" />
</g>
	<g transform="matrix(2.772 0 0 -2.772 -71.964 -4.935000000000002)"  >
<radialGradient id="SVGID_86528" gradientUnits="userSpaceOnUse" gradientTransform="matrix(18.475954 -52.834724 -52.834724 -18.475954 159.66406 176.70264)"  cx="1.4210854715202004e-14" cy="-1.4210854715202004e-14" r="1" fx="1.4210854715202004e-14" fy="-1.4210854715202004e-14">
<stop offset="0%" style="stop-color:rgb(52,109,191);stop-opacity: 1"/>
<stop offset="100%" style="stop-color:rgb(39,57,122);stop-opacity: 1"/>
</radialGradient>
<path style="stroke: none; stroke-width: 1; stroke-dasharray: none; stroke-linecap: butt; stroke-dashoffset: 0; stroke-linejoin: miter; stroke-miterlimit: 4; fill: url(#SVGID_86528); fill-rule: nonzero; opacity: 1;"  paint-order="stroke"  transform=" translate(-136.53621644938983, -151.3275)" d="m 120.647 172.911 c -9.682 -6.531 -12.225 -19.613 -5.695 -29.294 v 0 l 11.801 -17.494 l 23.325 15.733 l 11.663 7.868 l -4.528 6.711 l -7.273 10.782 c -4.082 6.053 -10.725 9.315 -17.496 9.315 v 0 c -4.061 0 -8.168 -1.173 -11.797 -3.621 m 1.017 -24.767 c -2.004 2.971 -2.574 6.428 -1.93 9.744 v 0 c 0.535 3.243 2.469 6.308 5.439 8.311 v 0 c 2.971 2.004 6.428 2.574 9.744 1.93 v 0 c 3.132 -0.608 6.198 -2.542 8.237 -5.328 v 0 l 7.348 -10.893 l -21.565 -14.546 z" stroke-linecap="round" />
</g>
</g>
<g transform="matrix(1.9692780337941629 0 0 1.9692780337941629 639.919066919052 720.5696668549101)" id="text-logo-path"  >
<path style="stroke: none; stroke-width: 1; stroke-dasharray: none; stroke-linecap: butt; stroke-dashoffset: 0; stroke-linejoin: miter; stroke-miterlimit: 4; fill: rgb(39,57,122); fill-rule: nonzero; opacity: 1;"  paint-order="stroke"  transform=" translate(-269.42, 24.505)" d="M 12.68 0 L 1.4 0 L 1.4 -49.01 L 12.68 -49.01 L 23.99 -49.01 Q 27.14 -49.01 29.87 -47.82 Q 32.61 -46.62 34.64 -44.59 Q 36.67 -42.55 37.87 -39.82 Q 39.07 -37.08 39.07 -33.94 L 39.07 -33.94 Q 39.07 -30.8 37.87 -28.06 Q 36.67 -25.33 34.64 -23.28 Q 32.61 -21.23 29.89 -20.03 Q 27.17 -18.83 23.99 -18.83 L 23.99 -18.83 L 12.68 -18.83 L 12.68 0 Z M 12.68 -37.67 L 12.68 -30.18 L 23.99 -30.18 Q 25.6 -30.18 26.69 -31.26 Q 27.79 -32.33 27.79 -33.94 L 27.79 -33.94 Q 27.79 -35.48 26.71 -36.57 Q 25.63 -37.67 23.99 -37.67 L 23.99 -37.67 L 12.68 -37.67 Z M 53.18 -37.67 L 41.84 -37.67 L 41.84 -49.01 L 75.78 -49.01 L 75.78 -37.67 L 64.43 -37.67 L 64.43 0 L 53.18 0 L 53.18 -37.67 Z M 115.22 0 L 92.63 0 L 92.63 -11.28 L 115.22 -11.28 Q 116.83 -11.35 117.92 -12.42 Q 119.01 -13.5 119.01 -15.04 L 119.01 -15.04 Q 119.01 -16.65 117.94 -17.74 Q 116.86 -18.83 115.22 -18.83 L 115.22 -18.83 L 107.67 -18.83 Q 104.52 -18.83 101.79 -20.03 Q 99.05 -21.23 97.04 -23.28 Q 95.02 -25.33 93.82 -28.06 Q 92.63 -30.8 92.63 -33.94 L 92.63 -33.94 Q 92.63 -37.08 93.82 -39.82 Q 95.02 -42.55 97.04 -44.59 Q 99.05 -46.62 101.79 -47.82 Q 104.52 -49.01 107.67 -49.01 L 107.67 -49.01 L 122.74 -49.01 L 122.74 -37.67 L 107.67 -37.67 Q 106.06 -37.67 104.98 -36.57 Q 103.91 -35.48 103.91 -33.94 L 103.91 -33.94 Q 103.91 -32.33 104.98 -31.26 Q 106.06 -30.18 107.67 -30.18 L 107.67 -30.18 L 115.22 -30.18 Q 118.36 -30.18 121.1 -28.98 Q 123.83 -27.79 125.87 -25.72 Q 127.9 -23.65 129.1 -20.92 Q 130.29 -18.18 130.29 -15.04 L 130.29 -15.04 Q 130.29 -11.89 129.1 -9.16 Q 127.9 -6.43 125.87 -4.41 Q 123.83 -2.39 121.12 -1.2 Q 118.4 0 115.22 0 L 115.22 0 Z M 133.06 -15.04 L 133.06 -15.04 L 133.06 -33.94 Q 133.06 -37.08 134.26 -39.82 Q 135.45 -42.55 137.47 -44.59 Q 139.49 -46.62 142.22 -47.82 Q 144.96 -49.01 148.1 -49.01 L 148.1 -49.01 L 155.65 -49.01 Q 158.8 -49.01 161.53 -47.82 Q 164.27 -46.62 166.3 -44.59 Q 168.33 -42.55 169.53 -39.82 Q 170.73 -37.08 170.73 -33.94 L 170.73 -33.94 L 159.45 -33.94 Q 159.45 -35.48 158.37 -36.57 Q 157.29 -37.67 155.65 -37.67 L 155.65 -37.67 L 148.1 -37.67 Q 146.49 -37.67 145.42 -36.57 Q 144.34 -35.48 144.34 -33.94 L 144.34 -33.94 L 144.34 -15.04 Q 144.34 -13.5 145.42 -12.39 Q 146.49 -11.28 148.1 -11.28 L 148.1 -11.28 L 155.65 -11.28 Q 157.26 -11.28 158.35 -12.39 Q 159.45 -13.5 159.45 -15.04 L 159.45 -15.04 L 170.73 -15.04 Q 170.73 -11.89 169.53 -9.16 Q 168.33 -6.43 166.3 -4.41 Q 164.27 -2.39 161.55 -1.2 Q 158.83 0 155.65 0 L 155.65 0 L 148.1 0 Q 144.96 0 142.22 -1.2 Q 139.49 -2.39 137.47 -4.41 Q 135.45 -6.43 134.26 -9.16 Q 133.06 -11.89 133.06 -15.04 Z M 184.78 0 L 173.5 0 L 173.5 -49.01 L 184.78 -49.01 L 184.78 -30.18 L 199.88 -30.18 L 199.88 -49.01 L 211.16 -49.01 L 211.16 0 L 199.88 0 L 199.88 -18.83 L 184.78 -18.83 L 184.78 0 Z M 213.93 -15.04 L 213.93 -15.04 L 213.93 -33.94 Q 213.93 -37.08 215.13 -39.82 Q 216.32 -42.55 218.34 -44.59 Q 220.36 -46.62 223.09 -47.82 Q 225.83 -49.01 228.97 -49.01 L 228.97 -49.01 L 236.52 -49.01 Q 239.67 -49.01 242.4 -47.82 Q 245.14 -46.62 247.17 -44.59 Q 249.2 -42.55 250.4 -39.82 Q 251.6 -37.08 251.6 -33.94 L 251.6 -33.94 L 251.6 -15.04 Q 251.6 -11.89 250.4 -9.16 Q 249.2 -6.43 247.17 -4.41 Q 245.14 -2.39 242.42 -1.2 Q 239.7 0 236.52 0 L 236.52 0 L 228.97 0 Q 225.83 0 223.09 -1.2 Q 220.36 -2.39 218.34 -4.41 Q 216.32 -6.43 215.13 -9.16 Q 213.93 -11.89 213.93 -15.04 Z M 225.21 -33.94 L 225.21 -15.04 Q 225.21 -13.5 226.29 -12.39 Q 227.36 -11.28 228.97 -11.28 L 228.97 -11.28 L 236.52 -11.28 Q 238.13 -11.28 239.22 -12.39 Q 240.32 -13.5 240.32 -15.04 L 240.32 -15.04 L 240.32 -33.94 Q 240.32 -35.48 239.24 -36.57 Q 238.16 -37.67 236.52 -37.67 L 236.52 -37.67 L 228.97 -37.67 Q 227.36 -37.67 226.29 -36.57 Q 225.21 -35.48 225.21 -33.94 L 225.21 -33.94 Z M 254.37 -15.04 L 254.37 -15.04 L 254.37 -33.94 Q 254.37 -37.08 255.56 -39.82 Q 256.76 -42.55 258.77 -44.59 Q 260.79 -46.62 263.53 -47.82 Q 266.26 -49.01 269.4 -49.01 L 269.4 -49.01 L 276.96 -49.01 Q 280.1 -49.01 282.84 -47.82 Q 285.57 -46.62 287.6 -44.59 Q 289.64 -42.55 290.83 -39.82 Q 292.03 -37.08 292.03 -33.94 L 292.03 -33.94 L 292.03 -15.04 Q 292.03 -11.89 290.83 -9.16 Q 289.64 -6.43 287.6 -4.41 Q 285.57 -2.39 282.85 -1.2 Q 280.14 0 276.96 0 L 276.96 0 L 269.4 0 Q 266.26 0 263.53 -1.2 Q 260.79 -2.39 258.77 -4.41 Q 256.76 -6.43 255.56 -9.16 Q 254.37 -11.89 254.37 -15.04 Z M 265.64 -33.94 L 265.64 -15.04 Q 265.64 -13.5 266.72 -12.39 Q 267.8 -11.28 269.4 -11.28 L 269.4 -11.28 L 276.96 -11.28 Q 278.56 -11.28 279.66 -12.39 Q 280.75 -13.5 280.75 -15.04 L 280.75 -15.04 L 280.75 -33.94 Q 280.75 -35.48 279.68 -36.57 Q 278.6 -37.67 276.96 -37.67 L 276.96 -37.67 L 269.4 -37.67 Q 267.8 -37.67 266.72 -36.57 Q 265.64 -35.48 265.64 -33.94 L 265.64 -33.94 Z M 294.8 -15.04 L 294.8 -15.04 L 294.8 -49.01 L 306.15 -49.01 L 306.15 -15.04 Q 306.15 -13.5 307.22 -12.39 Q 308.3 -11.28 309.84 -11.28 L 309.84 -11.28 L 321.19 -11.28 L 321.19 0 L 309.84 0 Q 306.69 0 303.96 -1.2 Q 301.23 -2.39 299.21 -4.41 Q 297.19 -6.43 296 -9.16 Q 294.8 -11.89 294.8 -15.04 Z M 349.32 0 L 338.04 0 L 338.04 -49.01 L 349.32 -49.01 L 360.63 -49.01 Q 363.77 -49.01 366.51 -47.82 Q 369.24 -46.62 371.28 -44.59 Q 373.31 -42.55 374.51 -39.82 Q 375.7 -37.08 375.7 -33.94 L 375.7 -33.94 Q 375.7 -30.8 374.51 -28.06 Q 373.31 -25.33 371.28 -23.28 Q 369.24 -21.23 366.53 -20.03 Q 363.81 -18.83 360.63 -18.83 L 360.63 -18.83 L 349.32 -18.83 L 349.32 0 Z M 349.32 -37.67 L 349.32 -30.18 L 360.63 -30.18 Q 362.24 -30.18 363.33 -31.26 Q 364.42 -32.33 364.42 -33.94 L 364.42 -33.94 Q 364.42 -35.48 363.35 -36.57 Q 362.27 -37.67 360.63 -37.67 L 360.63 -37.67 L 349.32 -37.67 Z M 389.75 0 L 378.47 0 L 378.47 -49.01 L 389.75 -49.01 L 401.06 -49.01 Q 404.21 -49.01 406.94 -47.82 Q 409.68 -46.62 411.71 -44.59 Q 413.75 -42.55 414.94 -39.82 Q 416.14 -37.08 416.14 -33.94 L 416.14 -33.94 Q 416.14 -31.27 415.27 -28.86 Q 414.39 -26.46 412.86 -24.51 L 412.86 -24.51 Q 414.39 -22.56 415.27 -20.13 Q 416.14 -17.71 416.14 -15.04 L 416.14 -15.04 L 416.14 0 L 404.86 0 L 404.86 -15.04 Q 404.86 -16.65 403.78 -17.74 Q 402.71 -18.83 401.06 -18.83 L 401.06 -18.83 L 389.75 -18.83 L 389.75 0 Z M 389.75 -37.67 L 389.75 -30.18 L 401.06 -30.18 Q 402.67 -30.18 403.76 -31.26 Q 404.86 -32.33 404.86 -33.94 L 404.86 -33.94 Q 404.86 -35.48 403.78 -36.57 Q 402.71 -37.67 401.06 -37.67 L 401.06 -37.67 L 389.75 -37.67 Z M 418.91 -15.04 L 418.91 -15.04 L 418.91 -33.94 Q 418.91 -37.08 420.1 -39.82 Q 421.3 -42.55 423.32 -44.59 Q 425.33 -46.62 428.07 -47.82 Q 430.8 -49.01 433.95 -49.01 L 433.95 -49.01 L 441.5 -49.01 Q 444.64 -49.01 447.38 -47.82 Q 450.11 -46.62 452.15 -44.59 Q 454.18 -42.55 455.38 -39.82 Q 456.57 -37.08 456.57 -33.94 L 456.57 -33.94 L 456.57 -15.04 Q 456.57 -11.89 455.38 -9.16 Q 454.18 -6.43 452.15 -4.41 Q 450.11 -2.39 447.4 -1.2 Q 444.68 0 441.5 0 L 441.5 0 L 433.95 0 Q 430.8 0 428.07 -1.2 Q 425.33 -2.39 423.32 -4.41 Q 421.3 -6.43 420.1 -9.16 Q 418.91 -11.89 418.91 -15.04 Z M 430.19 -33.94 L 430.19 -15.04 Q 430.19 -13.5 431.26 -12.39 Q 432.34 -11.28 433.95 -11.28 L 433.95 -11.28 L 441.5 -11.28 Q 443.11 -11.28 444.2 -12.39 Q 445.29 -13.5 445.29 -15.04 L 445.29 -15.04 L 445.29 -33.94 Q 445.29 -35.48 444.22 -36.57 Q 443.14 -37.67 441.5 -37.67 L 441.5 -37.67 L 433.95 -37.67 Q 432.34 -37.67 431.26 -36.57 Q 430.19 -35.48 430.19 -33.94 L 430.19 -33.94 Z M 470.62 0 L 459.34 0 L 459.34 -49.01 L 470.62 -49.01 L 481.93 -49.01 Q 485.08 -49.01 487.81 -47.82 Q 490.55 -46.62 492.58 -44.59 Q 494.61 -42.55 495.81 -39.82 Q 497.01 -37.08 497.01 -33.94 L 497.01 -33.94 Q 497.01 -31.27 496.14 -28.86 Q 495.26 -26.46 493.73 -24.51 L 493.73 -24.51 Q 495.26 -22.56 496.14 -20.13 Q 497.01 -17.71 497.01 -15.04 L 497.01 -15.04 Q 497.01 -11.89 495.81 -9.16 Q 494.61 -6.43 492.58 -4.41 Q 490.55 -2.39 487.83 -1.2 Q 485.11 0 481.93 0 L 481.93 0 L 470.62 0 Z M 470.62 -18.83 L 470.62 -11.28 L 481.93 -11.28 Q 483.54 -11.28 484.63 -12.39 Q 485.73 -13.5 485.73 -15.04 L 485.73 -15.04 Q 485.73 -16.65 484.65 -17.74 Q 483.57 -18.83 481.93 -18.83 L 481.93 -18.83 L 470.62 -18.83 Z M 470.62 -37.67 L 470.62 -30.18 L 481.93 -30.18 Q 483.54 -30.18 484.63 -31.26 Q 485.73 -32.33 485.73 -33.94 L 485.73 -33.94 Q 485.73 -35.48 484.65 -36.57 Q 483.57 -37.67 481.93 -37.67 L 481.93 -37.67 L 470.62 -37.67 Z M 499.78 -15.04 L 499.78 -15.04 L 499.78 -33.94 Q 499.78 -37.08 500.97 -39.82 Q 502.17 -42.55 504.18 -44.59 Q 506.2 -46.62 508.94 -47.82 Q 511.67 -49.01 514.81 -49.01 L 514.81 -49.01 L 537.44 -49.01 L 537.44 -37.67 L 514.81 -37.67 Q 513.21 -37.67 512.13 -36.57 Q 511.05 -35.48 511.05 -33.94 L 511.05 -33.94 L 511.05 -30.18 L 537.44 -30.18 L 537.44 -18.83 L 511.05 -18.83 L 511.05 -15.04 Q 511.05 -13.5 512.13 -12.39 Q 513.21 -11.28 514.81 -11.28 L 514.81 -11.28 L 537.44 -11.28 L 537.44 0 L 514.81 0 Q 511.67 0 508.94 -1.2 Q 506.2 -2.39 504.18 -4.41 Q 502.17 -6.43 500.97 -9.16 Q 499.78 -11.89 499.78 -15.04 Z" stroke-linecap="round" />
</g>
</svg>